<?xml version="1.0" encoding="UTF-8"?>
<svg id="Layer_1" data-name="Layer 1" xmlns="http://www.w3.org/2000/svg" xmlns:xlink="http://www.w3.org/1999/xlink" viewBox="0 0 212.74 55.65">
  <defs>
    <style>
      .cls-1 {
        fill: url(#linear-gradient);
      }

      .cls-2 {
        fill: #d12626;
      }

      .cls-3 {
        fill: #1c8cda;
      }

      .cls-4 {
        letter-spacing: -.04em;
      }

      .cls-5 {
        letter-spacing: -.03em;
      }

      .cls-6 {
        fill: #848484;
        font-family: Futura-Bold, Futura;
        font-size: 13px;
        font-weight: 700;
      }

      .cls-7 {
        fill: url(#linear-gradient-2);
      }
    </style>
    <linearGradient id="linear-gradient" x1="101.91" y1="46.31" x2="81.02" y2="25.42" gradientUnits="userSpaceOnUse">
      <stop offset="0" stop-color="#1c8cda"/>
      <stop offset=".13" stop-color="#208eda" stop-opacity=".98"/>
      <stop offset=".26" stop-color="#2d94dc" stop-opacity=".92"/>
      <stop offset=".4" stop-color="#439fe0" stop-opacity=".83"/>
      <stop offset=".54" stop-color="#61afe5" stop-opacity=".69"/>
      <stop offset=".68" stop-color="#89c3eb" stop-opacity=".52"/>
      <stop offset=".83" stop-color="#b9dbf3" stop-opacity=".31"/>
      <stop offset=".97" stop-color="#f1f8fc" stop-opacity=".06"/>
      <stop offset="1" stop-color="#fff" stop-opacity="0"/>
    </linearGradient>
    <linearGradient id="linear-gradient-2" x1="140.94" y1="53.35" x2="120.62" y2="18.15" gradientUnits="userSpaceOnUse">
      <stop offset="0" stop-color="#1c8cda"/>
      <stop offset=".13" stop-color="#2b83ca"/>
      <stop offset=".37" stop-color="#536ca2"/>
      <stop offset=".71" stop-color="#944862"/>
      <stop offset="1" stop-color="#d12626"/>
    </linearGradient>
  </defs>
  <g>
    <path class="cls-3" d="m167.19,17.73v37.7h-9.8V17.73h9.8Z"/>
    <path class="cls-3" d="m175.09,55.43V17.73h9.8l18.1,23.05v-23.05h9.75v37.7h-9.75l-18.1-23.05v23.05h-9.8Z"/>
  </g>
  <path class="cls-2" d="m99.81,24.9v30.1h-9.8v-30.1h-8.05v-8.5h25.9v8.5h-8.05Z"/>
  <path class="cls-1" d="m99.77,16.4v26.13c0,1.1-.06,2.12-.17,3.05-.12.93-.31,1.73-.57,2.4-.43,1.07-1.02,2.04-1.76,2.92-.75.88-1.61,1.63-2.61,2.25-.99.62-2.09,1.1-3.3,1.45-1.21.35-2.47.52-3.79.52-4,0-7.26-1.85-9.78-5.55l6.35-6.54c.17,1.13.53,2.03,1.09,2.7.56.67,1.26,1,2.08,1,1.82,0,2.73-1.45,2.73-4.35v-25.98h9.73Z"/>
  <path class="cls-7" d="m109.97,35.76c0-2.8.52-5.4,1.55-7.82,1.03-2.41,2.46-4.52,4.29-6.32,1.83-1.8,4.01-3.21,6.56-4.22,2.54-1.02,5.34-1.52,8.4-1.52s5.82.51,8.38,1.52c2.56,1.02,4.76,2.42,6.61,4.22,1.84,1.8,3.28,3.91,4.31,6.32,1.03,2.42,1.55,5.02,1.55,7.82s-.52,5.4-1.55,7.82c-1.03,2.42-2.47,4.52-4.31,6.32-1.84,1.8-4.05,3.21-6.61,4.22-2.56,1.02-5.35,1.52-8.38,1.52s-5.86-.51-8.4-1.52c-2.54-1.02-4.73-2.42-6.56-4.22-1.83-1.8-3.26-3.9-4.29-6.32-1.03-2.41-1.55-5.02-1.55-7.82Zm10.22,0c0,1.5.28,2.88.85,4.15.56,1.27,1.33,2.37,2.29,3.3.96.93,2.09,1.66,3.37,2.17,1.28.52,2.63.77,4.06.77s2.78-.26,4.06-.77c1.28-.52,2.41-1.24,3.39-2.17.98-.93,1.75-2.03,2.32-3.3.57-1.27.85-2.65.85-4.15s-.28-2.88-.85-4.15c-.57-1.27-1.34-2.36-2.32-3.3-.98-.93-2.11-1.66-3.39-2.17-1.28-.52-2.63-.77-4.06-.77s-2.78.26-4.06.77c-1.28.52-2.4,1.24-3.37,2.17-.96.93-1.73,2.03-2.29,3.3-.57,1.27-.85,2.65-.85,4.15Z"/>
  <g>
    <path class="cls-2" d="m27.02,47.88h-14l-2.25,7.54H.32L14.67,16.75h10.7l14.35,38.67h-10.45l-2.25-7.54Zm-2.6-7.44l-4.4-12.54-4.4,12.54h8.8Z"/>
    <path class="cls-2" d="m52.77,16.75v20.48c0,1.1.04,2.22.12,3.37.08,1.15.33,2.19.75,3.12.42.93,1.08,1.69,1.98,2.27.9.58,2.17.87,3.8.87s2.89-.29,3.77-.87c.88-.58,1.54-1.34,1.98-2.27.43-.93.69-1.97.77-3.12.08-1.15.12-2.27.12-3.37v-20.48h9.75v21.83c0,5.86-1.34,10.14-4.02,12.84-2.68,2.7-6.81,4.05-12.38,4.05s-9.7-1.35-12.4-4.05-4.05-6.98-4.05-12.84v-21.83h9.8Z"/>
  </g>
  <text class="cls-6" transform="translate(0 11.4)"><tspan class="cls-4" x="0" y="0">P</tspan><tspan x="8.27" y="0">AN</tspan><tspan class="cls-5" x="30.54" y="0">D</tspan><tspan x="40.34" y="0">AS</tspan></text>
</svg>