<?xml version="1.0" encoding="UTF-8"?>
<svg id="Layer_1" data-name="Layer 1" xmlns="http://www.w3.org/2000/svg" xmlns:xlink="http://www.w3.org/1999/xlink" viewBox="0 0 212.42 54.32">
  <defs>
    <style>
      .cls-1 {
        fill: url(#linear-gradient);
      }

      .cls-2 {
        fill: #848484;
      }

      .cls-3 {
        fill: #d12626;
      }

      .cls-4 {
        fill: #1c8cda;
      }

      .cls-5 {
        fill: url(#linear-gradient-2);
      }
    </style>
    <linearGradient id="linear-gradient" x1="101.59" y1="44.98" x2="80.71" y2="24.1" gradientUnits="userSpaceOnUse">
      <stop offset="0" stop-color="#1c8cda"/>
      <stop offset=".13" stop-color="#208eda" stop-opacity=".98"/>
      <stop offset=".26" stop-color="#2d94dc" stop-opacity=".92"/>
      <stop offset=".4" stop-color="#439fe0" stop-opacity=".83"/>
      <stop offset=".54" stop-color="#61afe5" stop-opacity=".69"/>
      <stop offset=".68" stop-color="#89c3eb" stop-opacity=".52"/>
      <stop offset=".83" stop-color="#b9dbf3" stop-opacity=".31"/>
      <stop offset=".97" stop-color="#f1f8fc" stop-opacity=".06"/>
      <stop offset="1" stop-color="#fff" stop-opacity="0"/>
    </linearGradient>
    <linearGradient id="linear-gradient-2" x1="140.62" y1="52.02" x2="120.3" y2="16.83" gradientUnits="userSpaceOnUse">
      <stop offset="0" stop-color="#1c8cda"/>
      <stop offset=".13" stop-color="#2b83ca"/>
      <stop offset=".37" stop-color="#536ca2"/>
      <stop offset=".71" stop-color="#944862"/>
      <stop offset="1" stop-color="#d12626"/>
    </linearGradient>
  </defs>
  <g>
    <path class="cls-4" d="m166.88,16.41v37.7h-9.8V16.41h9.8Z"/>
    <path class="cls-4" d="m174.77,54.11V16.41h9.8l18.1,23.05v-23.05h9.75v37.7h-9.75l-18.1-23.05v23.05h-9.8Z"/>
  </g>
  <path class="cls-3" d="m99.49,23.57v30.1h-9.8v-30.1h-8.05v-8.5h25.9v8.5h-8.05Z"/>
  <path class="cls-1" d="m99.46,15.07v26.13c0,1.1-.06,2.12-.17,3.05-.12.93-.31,1.73-.57,2.4-.43,1.07-1.02,2.04-1.76,2.92-.75.88-1.61,1.63-2.61,2.25-.99.62-2.09,1.1-3.3,1.45-1.21.35-2.47.52-3.79.52-4,0-7.26-1.85-9.78-5.55l6.35-6.54c.17,1.13.53,2.03,1.09,2.7.56.67,1.26,1,2.08,1,1.82,0,2.73-1.45,2.73-4.35V15.07h9.73Z"/>
  <path class="cls-5" d="m109.65,34.44c0-2.8.52-5.4,1.55-7.82,1.03-2.41,2.46-4.52,4.29-6.32,1.83-1.8,4.01-3.21,6.56-4.22,2.54-1.02,5.34-1.52,8.4-1.52s5.82.51,8.38,1.52c2.56,1.02,4.76,2.42,6.61,4.22,1.84,1.8,3.28,3.91,4.31,6.32,1.03,2.42,1.55,5.02,1.55,7.82s-.52,5.4-1.55,7.82c-1.03,2.42-2.47,4.52-4.31,6.32-1.84,1.8-4.05,3.21-6.61,4.22-2.56,1.02-5.35,1.52-8.38,1.52s-5.86-.51-8.4-1.52c-2.54-1.02-4.73-2.42-6.56-4.22-1.83-1.8-3.26-3.9-4.29-6.32-1.03-2.41-1.55-5.02-1.55-7.82Zm10.22,0c0,1.5.28,2.88.85,4.15.56,1.27,1.33,2.37,2.29,3.3.96.93,2.09,1.66,3.37,2.17,1.28.52,2.63.77,4.06.77s2.78-.26,4.06-.77c1.28-.52,2.41-1.24,3.39-2.17.98-.93,1.75-2.03,2.32-3.3.57-1.27.85-2.65.85-4.15s-.28-2.88-.85-4.15c-.57-1.27-1.34-2.36-2.32-3.3-.98-.93-2.11-1.66-3.39-2.17-1.28-.52-2.63-.77-4.06-.77s-2.78.26-4.06.77c-1.28.52-2.4,1.24-3.37,2.17-.96.93-1.73,2.03-2.29,3.3-.57,1.27-.85,2.65-.85,4.15Z"/>
  <g>
    <path class="cls-3" d="m26.7,46.55h-14l-2.25,7.54H0L14.35,15.43h10.7l14.35,38.67h-10.45l-2.25-7.54Zm-2.6-7.44l-4.4-12.54-4.4,12.54h8.8Z"/>
    <path class="cls-3" d="m52.45,15.43v20.48c0,1.1.04,2.22.12,3.37.08,1.15.33,2.19.75,3.12.42.93,1.08,1.69,1.98,2.27.9.58,2.17.87,3.8.87s2.89-.29,3.77-.87c.88-.58,1.54-1.34,1.98-2.27.43-.93.69-1.97.77-3.12.08-1.15.12-2.27.12-3.37V15.43h9.75v21.83c0,5.86-1.34,10.14-4.02,12.84-2.68,2.7-6.81,4.05-12.38,4.05s-9.7-1.35-12.4-4.05-4.05-6.98-4.05-12.84V15.43h9.8Z"/>
  </g>
  <g>
    <path class="cls-2" d="m3.26,10.08H.71V.27h4.06c1.1,0,1.94.29,2.53.86.58.57.88,1.38.88,2.42s-.29,1.85-.88,2.42c-.58.57-1.43.86-2.53.86h-1.51v3.25Zm0-5.3h.84c.94,0,1.4-.41,1.4-1.22s-.47-1.22-1.4-1.22h-.84v2.44Z"/>
    <path class="cls-2" d="m14.98,8.37h-3.64l-.58,1.7h-2.72L11.77.27h2.78l3.73,9.8h-2.72l-.58-1.7Zm-.68-1.94l-1.14-3.26-1.14,3.26h2.29Z"/>
    <path class="cls-2" d="m19.4,10.08V.27h2.55l4.71,5.99V.27h2.54v9.8h-2.54l-4.71-5.99v5.99h-2.55Z"/>
    <path class="cls-2" d="m31.25.27h3.77c.67,0,1.29.13,1.88.4.59.27,1.1.63,1.53,1.07.44.45.78.97,1.03,1.56.25.59.38,1.22.38,1.87s-.12,1.26-.37,1.85-.59,1.12-1.03,1.57c-.44.45-.95.81-1.53,1.08s-1.22.4-1.89.4h-3.77V.27Zm2.55,7.64h.58c.44,0,.84-.07,1.18-.21.35-.14.64-.33.88-.57.24-.24.42-.53.55-.86.13-.33.19-.7.19-1.1s-.06-.75-.2-1.09c-.13-.34-.31-.63-.55-.87s-.53-.43-.88-.57-.74-.21-1.17-.21h-.58v5.49Z"/>
    <path class="cls-2" d="m47.05,8.37h-3.64l-.58,1.7h-2.72L43.84.27h2.78l3.73,9.8h-2.72l-.58-1.7Zm-.68-1.94l-1.14-3.26-1.14,3.26h2.29Z"/>
    <path class="cls-2" d="m56.86,2.78c-.28-.23-.55-.39-.83-.5-.28-.11-.55-.16-.81-.16-.33,0-.6.08-.81.23-.21.16-.31.36-.31.61,0,.17.05.32.16.43.1.11.24.21.41.29.17.08.36.15.57.21s.42.13.63.19c.83.28,1.44.65,1.83,1.11.39.46.58,1.07.58,1.81,0,.5-.08.96-.25,1.37-.17.41-.42.76-.74,1.05-.33.29-.72.52-1.2.68-.47.16-1.01.24-1.61.24-1.24,0-2.39-.37-3.44-1.1l1.09-2.05c.38.34.76.59,1.13.75.37.16.74.25,1.1.25.42,0,.73-.1.93-.29s.31-.41.31-.65c0-.15-.03-.28-.08-.38-.05-.11-.14-.21-.26-.3-.12-.09-.28-.18-.47-.25-.19-.08-.43-.16-.71-.26-.33-.1-.65-.22-.97-.34-.32-.13-.6-.29-.85-.5s-.45-.47-.6-.79c-.15-.32-.23-.72-.23-1.2s.08-.92.24-1.32c.16-.39.39-.73.68-1.01.29-.28.65-.5,1.07-.66.42-.16.89-.23,1.41-.23.49,0,.99.07,1.52.2s1.04.33,1.52.59l-1.01,1.99Z"/>
  </g>
</svg>